<svg xmlns="http://www.w3.org/2000/svg" xmlns:xlink="http://www.w3.org/1999/xlink"><symbol id="ruble" viewBox="0 0 31 42"><g fill="none">
<path fill-rule="evenodd" clip-rule="evenodd" d="M0.5 17H6.5V23H0.5V17Z" fill="#102654"/>
<path fill-rule="evenodd" clip-rule="evenodd" d="M4.15854 28.3214V18H10.1585V28.3214H21.5V34.3214H10.1585V42H4.15854V34.3214H0.5V28.3214H4.15854Z" fill="#102654"/>
<path fill-rule="evenodd" clip-rule="evenodd" d="M19 6H10.5V17H19C22.0376 17 24.5 14.5376 24.5 11.5C24.5 8.46243 22.0376 6 19 6ZM4.5 0V23H19C25.3513 23 30.5 17.8513 30.5 11.5C30.5 5.14873 25.3513 0 19 0H4.5Z" fill="#102654"/>
</g></symbol><symbol id="swiper_button_next" viewBox="0 0 18 34"><g fill="none">
<path d="M1 1L17 17L1 33" stroke="#102654"/>
</g></symbol><symbol id="swiper_button_prev" viewBox="0 0 18 34"><g fill="none">
<path d="M17 33L0.999999 17L17 0.999998" stroke="#102654"/>
</g></symbol><symbol id="tabs-close" viewBox="0 0 20 2">
<path d="M20 1H10H0"/>
</symbol><symbol id="tabs-open" viewBox="0 0 20 20">
<path d="M10 0V10M10 20V10M10 10H20M10 10H0"/>
</symbol></svg>